# Blender v3.3.0 OBJ File: ''
# www.blender.org
o Trunk1
v 1.420727 0.006851 -1.420728
v 0.000000 0.006851 -2.009213
v 0.000000 1.236481 -1.400432
v 0.990255 1.236481 -0.990255
v -1.420727 0.006851 -1.420728
v -0.990255 1.236481 -0.990255
v -2.009213 0.006851 0.000000
v -1.400432 1.236481 0.000000
v -1.420727 0.006851 1.420728
v -0.990255 1.236481 0.990255
v 0.000000 0.006851 2.009213
v 0.000000 1.236481 1.400432
v 1.420727 0.006851 1.420728
v 0.990255 1.236481 0.990255
v 2.009213 0.006851 0.000000
v 1.400432 1.236481 0.000000
v 0.000000 2.466111 -0.982960
v 0.695058 2.466111 -0.695058
v -0.695058 2.466111 -0.695058
v -0.982960 2.466111 0.000000
v -0.695058 2.466111 0.695058
v 0.000000 2.466111 0.982960
v 0.695058 2.466111 0.695058
v 0.982960 2.466111 0.000000
v 0.000000 3.695740 -0.845601
v 0.597931 3.695740 -0.597930
v -0.597931 3.695740 -0.597930
v -0.845602 3.695740 0.000001
v -0.597931 3.695740 0.597932
v 0.000000 3.695740 0.845603
v 0.597931 3.695740 0.597932
v 0.845602 3.695740 0.000001
v 0.000000 0.006851 0.000000
v 1.109881 15.753382 -0.277280
v 0.806042 16.005964 -0.409125
v 1.243655 16.514380 -0.261705
v 1.505025 16.297028 -0.148189
v 0.479508 16.128956 -0.277280
v 0.962739 16.620119 -0.148189
v 0.322094 16.053375 0.041924
v 0.827101 16.553837 0.126313
v 0.425743 15.821959 0.361669
v 0.916061 16.353592 0.401086
v 0.729535 15.569111 0.494055
v 1.177408 16.136106 0.514872
v 1.056117 15.446384 0.361668
v 1.458348 16.030500 0.401086
v 1.213577 15.522232 0.041924
v 1.594009 16.096916 0.126313
v 1.525226 16.850006 0.124976
v 0.480481 14.886852 -0.448806
v 0.129273 14.998663 -0.306431
v -0.036346 14.929954 0.038112
v 0.080396 14.719576 0.383147
v 0.410928 14.489714 0.526013
v 0.762178 14.378145 0.383147
v 0.927839 14.447096 0.038112
v 0.811055 14.657232 -0.306431
v -0.203335 4.826033 -0.568780
v 0.369924 4.814851 -0.805922
v -0.442801 4.819161 0.003812
v -0.208223 4.798123 0.576453
v 0.362968 4.775137 0.813644
v 0.936231 4.763980 0.576454
v 1.175702 4.770876 0.003812
v 0.941119 4.791889 -0.568780
v 0.124639 5.956325 -0.539630
v 0.673225 5.933962 -0.766242
v -0.106622 5.942583 0.007623
v 0.114863 5.900507 0.554975
v 0.659315 5.854535 0.781685
v 1.207909 5.832221 0.554975
v 1.439179 5.846012 0.007623
v 1.217685 5.888039 -0.539630
v 0.470929 7.086617 -0.510481
v 0.994843 7.053074 -0.726563
v 0.247873 7.066004 0.011434
v 0.456266 7.002891 0.533496
v 0.973977 6.933932 0.749726
v 1.497904 6.900462 0.533496
v 1.720972 6.921147 0.011434
v 1.512567 6.984188 -0.510481
v 0.517842 8.216909 -0.481331
v 1.017084 8.172185 -0.686884
v 0.302992 8.189425 0.015245
v 0.498291 8.105274 0.512018
v 0.989263 8.013330 0.717767
v 1.488522 7.968702 0.512018
v 1.703389 7.996283 0.015245
v 1.508072 8.080338 -0.481331
v 0.159376 9.347202 -0.452180
v 0.633945 9.291297 -0.647204
v -0.047269 9.312847 0.019057
v 0.134937 9.207659 0.490539
v 0.599169 9.092728 0.685808
v 1.073759 9.036942 0.490539
v 1.280426 9.071419 0.019056
v 1.098198 9.176487 -0.452181
v 0.055432 10.412687 -0.423030
v 0.510303 10.412176 -0.607524
v -0.134837 10.342859 0.022868
v 0.050932 10.242745 0.469061
v 0.503899 10.170351 0.653849
v 0.958774 10.169987 0.469061
v 1.149046 10.239963 0.022868
v 0.963273 10.339930 -0.423030
v 0.123293 11.453424 -0.393880
v 0.548964 11.529226 -0.567844
v -0.037999 11.341678 0.026679
v 0.159753 11.258470 0.447583
v 0.600845 11.251808 0.621890
v 1.026485 11.327779 0.447583
v 1.187745 11.439695 0.026679
v 0.990025 11.522735 -0.393880
v -0.057908 12.465738 -0.364731
v 0.316565 12.633707 -0.528165
v -0.170880 12.312789 0.030490
v 0.044338 12.263442 0.426104
v 0.462060 12.345840 0.589931
v 0.836443 12.513984 0.426104
v 0.949326 12.667109 0.030490
v 0.734196 12.716282 -0.364731
v -0.314834 13.639185 -0.335581
v 0.056171 13.756520 -0.488485
v -0.428113 13.493559 0.034301
v -0.216820 13.403772 0.404625
v 0.195643 13.421531 0.557972
v 0.566563 13.539070 0.404625
v 0.679758 13.684898 0.034301
v 0.468548 13.774484 -0.335581
vt 0.375000 0.562500
vt 0.406250 0.687500
vt 0.375000 0.687500
vt 0.406250 0.562500
vt 0.437500 0.687500
vt 0.437500 0.562500
vt 0.468750 0.687500
vt 0.468750 0.562500
vt 0.500000 0.687500
vt 0.531250 0.562500
vt 0.500000 0.562500
vt 0.562500 0.562500
vt 0.531250 0.687500
vt 0.593750 0.562500
vt 0.562500 0.687500
vt 0.625000 0.562500
vt 0.593750 0.687500
vt 0.625000 0.687500
vt 0.375000 0.312500
vt 0.406250 0.437500
vt 0.375000 0.437500
vt 0.437500 0.312500
vt 0.406250 0.312500
vt 0.468750 0.312500
vt 0.437500 0.437500
vt 0.500000 0.312500
vt 0.468750 0.437500
vt 0.531250 0.437500
vt 0.500000 0.437500
vt 0.562500 0.312500
vt 0.531250 0.312500
vt 0.593750 0.312500
vt 0.562500 0.437500
vt 0.625000 0.312500
vt 0.593750 0.437500
vt 0.375000 0.562500
vt 0.406250 0.562500
vt 0.437500 0.562500
vt 0.468750 0.562500
vt 0.500000 0.562500
vt 0.531250 0.562500
vt 0.562500 0.562500
vt 0.625000 0.437500
vt 0.593750 0.562500
vt 0.375000 0.687500
vt 0.406250 0.687500
vt 0.437500 0.687500
vt 0.500000 0.687500
vt 0.468750 0.687500
vt 0.531250 0.687500
vt 0.562500 0.687500
vt 0.625000 0.687500
vt 0.593750 0.687500
vt 0.500000 0.000000
vt 0.610485 0.045765
vt 0.500000 0.156250
vt 0.389515 0.045765
vt 0.343750 0.156250
vt 0.389515 0.266735
vt 0.500000 0.312500
vt 0.610485 0.266735
vt 0.656250 0.156250
vt 0.610485 0.954235
vt 0.500000 1.000000
vt 0.500000 0.843750
vt 0.389515 0.954235
vt 0.343750 0.843750
vt 0.389515 0.733265
vt 0.500000 0.687500
vt 0.610485 0.733265
vt 0.656250 0.843750
vt 0.437500 0.573864
vt 0.406250 0.573864
vt 0.468750 0.573864
vt 0.500000 0.573864
vt 0.531250 0.573864
vt 0.593750 0.573864
vt 0.562500 0.573864
vt 0.625000 0.573864
vt 0.375000 0.573864
vt 0.437500 0.676136
vt 0.406250 0.676136
vt 0.468750 0.676136
vt 0.500000 0.676136
vt 0.531250 0.676136
vt 0.562500 0.676136
vt 0.625000 0.676136
vt 0.593750 0.676136
vt 0.375000 0.676136
vt 0.437500 0.664773
vt 0.406250 0.664773
vt 0.468750 0.664773
vt 0.500000 0.664773
vt 0.531250 0.664773
vt 0.562500 0.664773
vt 0.625000 0.664773
vt 0.593750 0.664773
vt 0.375000 0.664773
vt 0.437500 0.653409
vt 0.406250 0.653409
vt 0.468750 0.653409
vt 0.500000 0.653409
vt 0.531250 0.653409
vt 0.562500 0.653409
vt 0.625000 0.653409
vt 0.593750 0.653409
vt 0.375000 0.653409
vt 0.406250 0.642045
vt 0.468750 0.642045
vt 0.437500 0.642045
vt 0.500000 0.642045
vt 0.531250 0.642045
vt 0.562500 0.642045
vt 0.593750 0.642045
vt 0.375000 0.642045
vt 0.406250 0.630682
vt 0.437500 0.630682
vt 0.500000 0.630682
vt 0.468750 0.630682
vt 0.531250 0.630682
vt 0.562500 0.630682
vt 0.593750 0.630682
vt 0.625000 0.642045
vt 0.375000 0.630682
vt 0.406250 0.619318
vt 0.468750 0.619318
vt 0.437500 0.619318
vt 0.500000 0.619318
vt 0.531250 0.619318
vt 0.562500 0.619318
vt 0.625000 0.630682
vt 0.593750 0.619318
vt 0.375000 0.619318
vt 0.437500 0.607955
vt 0.406250 0.607955
vt 0.468750 0.607955
vt 0.500000 0.607955
vt 0.531250 0.607955
vt 0.562500 0.607955
vt 0.625000 0.619318
vt 0.593750 0.607955
vt 0.375000 0.607955
vt 0.437500 0.596591
vt 0.406250 0.596591
vt 0.468750 0.596591
vt 0.500000 0.596591
vt 0.531250 0.596591
vt 0.562500 0.596591
vt 0.625000 0.607955
vt 0.593750 0.596591
vt 0.375000 0.596591
vt 0.437500 0.585227
vt 0.406250 0.585227
vt 0.468750 0.585227
vt 0.500000 0.585227
vt 0.531250 0.585227
vt 0.562500 0.585227
vt 0.625000 0.596591
vt 0.593750 0.585227
vt 0.375000 0.585227
vt 0.625000 0.585227
vt 0.625000 0.562500
vn 0.3660 -0.0453 -0.9295
vn -0.1968 0.4255 -0.8833
vn -0.6812 0.7134 -0.1643
vn -0.6187 0.5259 0.5836
vn -0.2667 0.1757 0.9476
vn 0.2795 -0.2548 0.9257
vn 0.7882 -0.5600 0.2553
vn 0.7379 -0.4097 -0.5364
vn 0.3658 -0.0453 -0.9296
vn -0.1964 0.4254 -0.8834
vn -0.6800 0.7142 -0.1662
vn -0.6187 0.5274 0.5823
vn -0.2664 0.1757 0.9477
vn 0.2792 -0.2547 0.9258
vn 0.7889 -0.5595 0.2542
vn 0.7378 -0.4087 -0.5372
vn 0.3480 0.4160 -0.8402
vn 0.3548 0.3750 -0.8565
vn 0.3548 0.3750 -0.8564
vn -0.3480 0.4160 -0.8402
vn -0.3548 0.3750 -0.8564
vn -0.8402 0.4160 -0.3480
vn -0.8564 0.3750 -0.3548
vn -0.8402 0.4160 0.3480
vn -0.8564 0.3751 0.3547
vn -0.3480 0.4160 0.8402
vn -0.3548 0.3750 0.8565
vn -0.3548 0.3750 0.8564
vn 0.3480 0.4160 0.8402
vn 0.3548 0.3750 0.8564
vn 0.8402 0.4160 0.3480
vn 0.8564 0.3750 0.3548
vn 0.8402 0.4160 -0.3480
vn 0.8564 0.3751 -0.3547
vn 0.3731 0.2219 -0.9008
vn -0.3548 0.3750 -0.8565
vn -0.3731 0.2219 -0.9008
vn -0.8564 0.3750 -0.3547
vn -0.9008 0.2219 -0.3731
vn -0.8565 0.3750 0.3548
vn -0.9009 0.2218 0.3731
vn -0.3731 0.2219 0.9008
vn 0.3548 0.3750 0.8565
vn 0.3731 0.2219 0.9008
vn 0.8564 0.3750 0.3547
vn 0.9008 0.2219 0.3731
vn 0.8565 0.3750 -0.3548
vn 0.9009 0.2218 -0.3731
vn 0.3731 0.2219 -0.9009
vn 0.3807 0.1027 -0.9190
vn -0.3731 0.2219 -0.9009
vn -0.3807 0.1027 -0.9190
vn -0.9009 0.2219 -0.3731
vn -0.9190 0.1027 -0.3807
vn -0.9190 0.1027 0.3807
vn -0.3731 0.2219 0.9009
vn -0.3807 0.1027 0.9190
vn 0.3731 0.2219 0.9009
vn 0.3807 0.1027 0.9190
vn 0.9009 0.2219 0.3731
vn 0.9190 0.1027 0.3807
vn 0.9190 0.1027 -0.3807
vn 0.0000 -1.0000 -0.0000
vn 0.8646 0.1968 -0.4624
vn 0.3185 0.5887 -0.7429
vn 0.4908 0.8220 0.2888
vn -0.2622 0.9333 -0.2454
vn -0.3502 0.8284 0.4371
vn -0.1194 0.5905 0.7982
vn 0.2361 0.3747 0.8966
vn 0.6403 0.1978 0.7422
vn 0.9672 0.0888 0.2378
vn -0.3407 0.1435 -0.9292
vn -0.3313 0.1273 -0.9349
vn -0.3331 0.1440 -0.9318
vn -0.8865 0.2885 -0.3617
vn -0.8850 0.2837 -0.3692
vn -0.8552 0.2556 0.4509
vn -0.8438 0.2686 0.4645
vn -0.8430 0.2674 0.4668
vn -0.3283 0.1093 0.9382
vn -0.3150 0.1178 0.9417
vn -0.3136 0.1166 0.9424
vn 0.3600 -0.0691 0.9304
vn 0.3509 -0.0763 0.9333
vn 0.3500 -0.0757 0.9337
vn 0.8876 -0.2583 0.3813
vn 0.8926 -0.2385 0.3826
vn 0.8992 -0.2571 0.3540
vn 0.8567 -0.2568 -0.4473
vn 0.8678 -0.2256 -0.4427
vn 0.8441 -0.2691 -0.4638
vn 0.3464 -0.0825 -0.9345
vn 0.3495 -0.0689 -0.9344
vn 0.3422 -0.0875 -0.9356
vn -0.3771 0.1557 -0.9130
vn -0.3762 0.1464 -0.9149
vn -0.3755 0.1430 -0.9157
vn -0.8767 0.3155 -0.3631
vn -0.8829 0.2943 -0.3658
vn -0.8839 0.2907 -0.3662
vn -0.8763 0.3142 0.3653
vn -0.8817 0.2922 0.3706
vn -0.8774 0.3133 0.3634
vn -0.3769 0.1519 0.9137
vn -0.3755 0.1421 0.9159
vn -0.3783 0.1515 0.9132
vn 0.3801 -0.1010 0.9194
vn 0.3796 -0.0911 0.9207
vn 0.3807 -0.1008 0.9192
vn 0.8885 -0.2740 0.3681
vn 0.8942 -0.2508 0.3709
vn 0.8885 -0.2740 0.3680
vn 0.8890 -0.2695 -0.3701
vn 0.8941 -0.2462 -0.3742
vn 0.8940 -0.2440 -0.3758
vn 0.3803 -0.0935 -0.9201
vn 0.3797 -0.0844 -0.9213
vn 0.3791 -0.0805 -0.9218
vn -0.3740 0.1355 -0.9175
vn -0.3730 0.1363 -0.9178
vn -0.8884 0.2738 -0.3685
vn -0.8881 0.2749 -0.3684
vn -0.8814 0.2904 0.3726
vn -0.8850 0.2717 0.3780
vn -0.3744 0.1388 0.9168
vn -0.3724 0.1307 0.9188
vn 0.3791 -0.0874 0.9212
vn 0.3783 -0.0797 0.9223
vn 0.8950 -0.2469 0.3715
vn 0.8990 -0.2280 0.3739
vn 0.8975 -0.2244 -0.3798
vn 0.8967 -0.2252 -0.3810
vn 0.3783 -0.0730 -0.9228
vn 0.3776 -0.0737 -0.9230
vn -0.3748 0.0936 -0.9224
vn -0.3749 0.0892 -0.9228
vn -0.9075 0.1772 -0.3808
vn -0.9092 0.1640 -0.3827
vn -0.8840 0.2726 0.3797
vn -0.9096 0.1650 0.3814
vn -0.3709 0.1315 0.9193
vn -0.3748 0.0862 0.9231
vn 0.3775 -0.0806 0.9225
vn 0.3797 -0.0351 0.9244
vn 0.8986 -0.2296 0.3740
vn 0.9143 -0.1237 0.3856
vn 0.9188 -0.1116 -0.3786
vn 0.9170 -0.1196 -0.3805
vn 0.3825 -0.0281 -0.9235
vn 0.3820 -0.0269 -0.9238
vn -0.3821 -0.0156 -0.9240
vn -0.9095 -0.1121 -0.4004
vn -0.9102 -0.1085 -0.3998
vn -0.9315 -0.0985 0.3502
vn -0.9300 -0.1429 0.3385
vn -0.3897 -0.0210 0.9207
vn -0.3951 -0.0521 0.9172
vn 0.3859 0.0803 0.9190
vn 0.3873 0.1027 0.9162
vn 0.9153 -0.1094 0.3875
vn 0.8988 0.1803 0.3995
vn 0.9272 0.1600 -0.3387
vn 0.3971 0.0798 -0.9143
vn -0.3835 -0.0362 -0.9228
vn -0.3856 -0.0645 -0.9204
vn -0.8958 -0.1847 -0.4042
vn -0.9263 -0.2069 0.3149
vn -0.9301 -0.1694 0.3259
vn -0.4018 -0.0775 0.9125
vn -0.3956 -0.0482 0.9172
vn 0.3894 0.1233 0.9128
vn 0.3872 0.1018 0.9164
vn 0.8867 0.2259 0.4033
vn 0.8868 0.2228 0.4049
vn 0.9234 0.2035 -0.3254
vn 0.9195 0.2499 -0.3035
vn 0.4024 0.1099 -0.9088
vn 0.4106 0.1355 -0.9017
vn -0.3836 -0.0466 -0.9223
vn -0.3777 0.0175 -0.9258
vn -0.9190 -0.0051 -0.3943
vn -0.9222 0.0054 -0.3866
vn -0.9249 0.0000 0.3802
vn -0.9191 0.0198 0.3935
vn -0.3760 0.0212 0.9264
vn -0.3739 0.0269 0.9271
vn 0.3781 0.0278 0.9254
vn 0.3763 0.0281 0.9261
vn 0.9170 0.0362 0.3973
vn 0.9257 0.2090 -0.3152
vn 0.9273 0.0530 -0.3704
vn 0.4052 0.1077 -0.9078
vn 0.3853 0.0473 -0.9216
vn -0.3779 0.0075 -0.9258
vn -0.3798 0.0012 -0.9250
vn -0.9303 -0.0053 -0.3669
vn -0.9325 -0.0396 -0.3591
vn -0.9072 0.0132 0.4206
vn -0.9025 -0.0157 0.4304
vn -0.3668 0.0201 0.9301
vn 0.3737 0.0299 0.9271
vn 0.9200 0.0252 0.3912
vn 0.9268 0.0438 0.3730
vn 0.9233 0.0374 -0.3824
vn 0.9105 0.0677 -0.4078
vn 0.3809 0.0421 -0.9236
vn 0.3688 0.0570 -0.9278
vn -0.3782 -0.0516 -0.9243
vn -0.3778 -0.0532 -0.9244
vn -0.9245 -0.1709 -0.3407
vn -0.9239 -0.1825 -0.3362
vn -0.8803 -0.1506 0.4499
vn -0.8746 -0.1633 0.4566
vn -0.3587 -0.0405 0.9326
vn -0.3567 -0.0412 0.9333
vn 0.3735 0.0376 0.9269
vn 0.3637 0.0918 0.9270
vn 0.9270 0.0755 0.3675
vn 0.9161 0.1987 0.3482
vn 0.9046 0.0965 -0.4151
vn 0.8744 0.2076 -0.4385
vn 0.3646 0.0628 -0.9291
vn 0.3466 0.1080 -0.9318
vn -0.3896 0.0248 -0.9206
vn -0.3914 0.0698 -0.9176
vn -0.9550 -0.0094 -0.2963
vn -0.9564 0.0974 -0.2753
vn -0.8704 -0.0102 0.4923
vn -0.8687 0.0448 0.4933
vn -0.3501 0.0192 0.9365
vn -0.3478 0.0159 0.9374
vn 0.3613 0.0970 0.9274
vn 0.3684 0.0553 0.9280
vn 0.9133 0.2131 0.3470
vn 0.9420 0.1062 0.3185
vn 0.8698 0.2142 -0.4444
vn 0.8707 0.0420 -0.4900
vn 0.3438 0.1086 -0.9327
vn 0.3463 0.0067 -0.9381
vn -0.8929 0.2879 -0.3461
vn -0.8577 0.2424 0.4534
vn -0.3346 0.1041 0.9366
vn 0.3718 0.0251 0.9280
vn 0.9506 -0.0089 0.3103
vn 0.8710 -0.0177 -0.4910
vn -0.9008 0.2219 0.3731
vn 0.9008 0.2219 -0.3731
vn -0.3301 0.1264 -0.9354
vn 0.3560 -0.0698 0.9319
vn 0.8925 -0.2385 0.3829
vn 0.8672 -0.2246 -0.4444
vn 0.3488 -0.0683 -0.9347
vn -0.3780 0.1555 -0.9126
vn -0.8767 0.3156 -0.3631
vn 0.8899 -0.2688 -0.3686
vn 0.3810 -0.0933 -0.9198
vn -0.9073 0.1734 0.3831
vn -0.3743 0.0855 0.9233
vn 0.3797 -0.0299 0.9246
vn 0.9000 0.1755 0.3990
vn -0.8957 -0.1815 -0.4059
vn -0.3757 0.0193 -0.9265
vn -0.3672 0.0222 0.9299
vn 0.3469 0.0222 -0.9376
s off
f 34/1/1 36/2/1 37/3/1
f 35/4/2 39/5/2 36/2/2
f 38/6/3 41/7/3 39/5/3
f 40/8/4 43/9/4 41/7/4
f 44/10/5 43/9/5 42/11/5
f 46/12/6 45/13/6 44/10/6
f 48/14/7 47/15/7 46/12/7
f 34/16/8 49/17/8 48/14/8
f 34/1/9 35/4/9 36/2/9
f 35/4/10 38/6/10 39/5/10
f 38/6/11 40/8/11 41/7/11
f 40/8/12 42/11/12 43/9/12
f 44/10/13 45/13/13 43/9/13
f 46/12/14 47/15/14 45/13/14
f 48/14/15 49/17/15 47/15/15
f 34/16/16 37/18/16 49/17/16
s 1
f 1/19/17 3/20/18 4/21/19
f 5/22/20 3/20/21 2/23/20
f 7/24/22 6/25/23 5/22/22
f 9/26/24 8/27/25 7/24/24
f 9/26/26 12/28/27 10/29/28
f 13/30/29 12/28/30 11/31/29
f 15/32/31 14/33/32 13/30/31
f 1/34/33 16/35/34 15/32/33
f 3/20/18 18/36/35 4/21/19
f 6/25/36 17/37/37 3/20/21
f 8/27/38 19/38/39 6/25/23
f 10/29/40 20/39/41 8/27/25
f 12/28/27 21/40/42 10/29/28
f 14/33/43 22/41/44 12/28/30
f 16/35/45 23/42/46 14/33/32
f 4/43/47 24/44/48 16/35/34
f 17/37/49 26/45/50 18/36/35
f 19/38/51 25/46/52 17/37/37
f 20/39/53 27/47/54 19/38/39
f 20/39/41 29/48/55 28/49/55
f 22/41/56 29/48/57 21/40/42
f 23/42/58 30/50/59 22/41/44
f 24/44/60 31/51/61 23/42/46
f 24/44/48 26/52/62 32/53/62
f 2/54/63 1/55/63 33/56/63
f 5/57/63 2/54/63 33/56/63
f 7/58/63 5/57/63 33/56/63
f 9/59/63 7/58/63 33/56/63
f 11/60/63 9/59/63 33/56/63
f 13/61/63 11/60/63 33/56/63
f 15/62/63 13/61/63 33/56/63
f 1/55/63 15/62/63 33/56/63
f 37/63/64 36/64/65 50/65/66
f 36/64/65 39/66/67 50/65/66
f 39/66/67 41/67/68 50/65/66
f 41/67/68 43/68/69 50/65/66
f 43/68/69 45/69/70 50/65/66
f 45/69/70 47/70/71 50/65/66
f 47/70/71 49/71/72 50/65/66
f 49/71/72 37/63/64 50/65/66
f 52/72/73 35/4/74 51/73/75
f 52/72/76 40/8/77 38/6/77
f 53/74/78 42/11/79 40/8/80
f 54/75/81 44/10/82 42/11/83
f 55/76/84 46/12/85 44/10/86
f 57/77/87 46/12/88 56/78/89
f 58/79/90 48/14/91 57/77/92
f 51/73/93 34/1/94 58/80/95
f 25/46/96 59/81/97 60/82/98
f 27/47/99 61/83/100 59/81/101
f 29/48/102 61/83/103 28/49/104
f 30/50/105 62/84/106 29/48/107
f 31/51/108 63/85/109 30/50/110
f 32/53/111 64/86/112 31/51/113
f 32/53/114 66/87/115 65/88/116
f 26/45/117 60/82/118 66/89/119
f 60/82/98 67/90/120 68/91/121
f 59/81/101 69/92/122 67/90/123
f 62/84/124 69/92/125 61/83/103
f 63/85/126 70/93/127 62/84/106
f 64/86/128 71/94/129 63/85/109
f 65/88/130 72/95/131 64/86/112
f 65/88/116 74/96/132 73/97/133
f 66/89/119 68/91/134 74/98/135
f 68/91/121 75/99/136 76/100/137
f 67/90/123 77/101/138 75/99/139
f 70/93/140 77/101/141 69/92/125
f 71/94/142 78/102/143 70/93/127
f 72/95/144 79/103/145 71/94/129
f 73/97/146 80/104/147 72/95/131
f 73/97/133 82/105/148 81/106/149
f 74/98/135 76/100/150 82/107/151
f 75/99/136 84/108/152 76/100/137
f 75/99/139 85/109/153 83/110/154
f 77/101/141 86/111/155 85/109/156
f 78/102/143 87/112/157 86/111/158
f 79/103/145 88/113/159 87/112/160
f 81/106/161 88/113/162 80/104/147
f 82/105/148 89/114/163 81/106/149
f 76/100/150 90/115/164 82/107/151
f 83/110/165 92/116/166 84/108/152
f 85/109/153 91/117/167 83/110/154
f 85/109/156 94/118/168 93/119/169
f 86/111/158 95/120/170 94/118/171
f 87/112/160 96/121/172 95/120/173
f 88/113/162 97/122/174 96/121/175
f 90/123/176 97/122/177 89/114/163
f 84/108/178 98/124/179 90/115/164
f 91/117/180 100/125/181 92/116/166
f 91/117/167 101/126/182 99/127/183
f 93/119/169 102/128/184 101/126/185
f 94/118/171 103/129/186 102/128/187
f 95/120/173 104/130/188 103/129/189
f 97/122/174 104/130/190 96/121/175
f 98/131/191 105/132/192 97/122/177
f 92/116/193 106/133/194 98/124/179
f 100/125/181 107/134/195 108/135/196
f 99/127/183 109/136/197 107/134/198
f 101/126/185 110/137/199 109/136/200
f 103/129/186 110/137/201 102/128/187
f 104/130/188 111/138/202 103/129/189
f 105/132/203 112/139/204 104/130/190
f 106/140/205 113/141/206 105/132/192
f 100/125/207 114/142/208 106/133/194
f 108/135/196 115/143/209 116/144/210
f 107/134/198 117/145/211 115/143/212
f 109/136/200 118/146/213 117/145/214
f 110/137/201 119/147/215 118/146/216
f 112/139/217 119/147/218 111/138/202
f 113/141/219 120/148/220 112/139/204
f 114/149/221 121/150/222 113/141/206
f 108/135/223 122/151/224 114/142/208
f 116/144/210 123/152/225 124/153/226
f 115/143/212 125/154/227 123/152/228
f 117/145/214 126/155/229 125/154/230
f 118/146/216 127/156/231 126/155/232
f 120/148/233 127/156/234 119/147/218
f 121/150/235 128/157/236 120/148/220
f 122/158/237 129/159/238 121/150/222
f 116/144/239 130/160/240 122/151/224
f 124/153/226 52/72/73 51/73/75
f 123/152/228 53/74/241 52/72/76
f 125/154/230 54/75/242 53/74/78
f 126/155/232 55/76/243 54/75/81
f 128/157/244 55/76/84 127/156/234
f 129/159/245 56/78/89 128/157/236
f 130/161/246 57/77/92 129/159/238
f 130/160/240 51/73/93 58/80/95
f 1/19/17 2/23/17 3/20/18
f 5/22/20 6/25/36 3/20/21
f 7/24/22 8/27/38 6/25/23
f 9/26/24 10/29/40 8/27/25
f 9/26/26 11/31/26 12/28/27
f 13/30/29 14/33/43 12/28/30
f 15/32/31 16/35/45 14/33/32
f 1/34/33 4/43/47 16/35/34
f 3/20/18 17/37/49 18/36/35
f 6/25/36 19/38/51 17/37/37
f 8/27/38 20/39/53 19/38/39
f 10/29/40 21/40/247 20/39/41
f 12/28/27 22/41/56 21/40/42
f 14/33/43 23/42/58 22/41/44
f 16/35/45 24/44/60 23/42/46
f 4/43/47 18/162/248 24/44/48
f 17/37/49 25/46/50 26/45/50
f 19/38/51 27/47/52 25/46/52
f 20/39/53 28/49/54 27/47/54
f 20/39/41 21/40/247 29/48/55
f 22/41/56 30/50/57 29/48/57
f 23/42/58 31/51/59 30/50/59
f 24/44/60 32/53/61 31/51/61
f 24/44/48 18/162/248 26/52/62
f 52/72/73 38/6/249 35/4/74
f 52/72/76 53/74/241 40/8/77
f 53/74/78 54/75/242 42/11/79
f 54/75/81 55/76/243 44/10/82
f 55/76/84 56/78/250 46/12/85
f 57/77/87 48/14/251 46/12/88
f 58/79/90 34/16/252 48/14/91
f 51/73/93 35/4/253 34/1/94
f 25/46/96 27/47/254 59/81/97
f 27/47/99 28/49/255 61/83/100
f 29/48/102 62/84/124 61/83/103
f 30/50/105 63/85/126 62/84/106
f 31/51/108 64/86/128 63/85/109
f 32/53/111 65/88/130 64/86/112
f 32/53/114 26/52/256 66/87/115
f 26/45/117 25/46/257 60/82/118
f 60/82/98 59/81/97 67/90/120
f 59/81/101 61/83/100 69/92/122
f 62/84/124 70/93/140 69/92/125
f 63/85/126 71/94/142 70/93/127
f 64/86/128 72/95/144 71/94/129
f 65/88/130 73/97/146 72/95/131
f 65/88/116 66/87/115 74/96/132
f 66/89/119 60/82/118 68/91/134
f 68/91/121 67/90/120 75/99/136
f 67/90/123 69/92/122 77/101/138
f 70/93/140 78/102/258 77/101/141
f 71/94/142 79/103/259 78/102/143
f 72/95/144 80/104/260 79/103/145
f 73/97/146 81/106/161 80/104/147
f 73/97/133 74/96/132 82/105/148
f 74/98/135 68/91/134 76/100/150
f 75/99/136 83/110/165 84/108/152
f 75/99/139 77/101/138 85/109/153
f 77/101/141 78/102/258 86/111/155
f 78/102/143 79/103/259 87/112/157
f 79/103/145 80/104/260 88/113/159
f 81/106/161 89/114/261 88/113/162
f 82/105/148 90/123/176 89/114/163
f 76/100/150 84/108/178 90/115/164
f 83/110/165 91/117/180 92/116/166
f 85/109/153 93/119/262 91/117/167
f 85/109/156 86/111/155 94/118/168
f 86/111/158 87/112/157 95/120/170
f 87/112/160 88/113/159 96/121/172
f 88/113/162 89/114/261 97/122/174
f 90/123/176 98/131/191 97/122/177
f 84/108/178 92/116/193 98/124/179
f 91/117/180 99/127/263 100/125/181
f 91/117/167 93/119/262 101/126/182
f 93/119/169 94/118/168 102/128/184
f 94/118/171 95/120/170 103/129/186
f 95/120/173 96/121/172 104/130/188
f 97/122/174 105/132/203 104/130/190
f 98/131/191 106/140/205 105/132/192
f 92/116/193 100/125/207 106/133/194
f 100/125/181 99/127/263 107/134/195
f 99/127/183 101/126/182 109/136/197
f 101/126/185 102/128/184 110/137/199
f 103/129/186 111/138/264 110/137/201
f 104/130/188 112/139/217 111/138/202
f 105/132/203 113/141/219 112/139/204
f 106/140/205 114/149/221 113/141/206
f 100/125/207 108/135/223 114/142/208
f 108/135/196 107/134/195 115/143/209
f 107/134/198 109/136/197 117/145/211
f 109/136/200 110/137/199 118/146/213
f 110/137/201 111/138/264 119/147/215
f 112/139/217 120/148/233 119/147/218
f 113/141/219 121/150/235 120/148/220
f 114/149/221 122/158/237 121/150/222
f 108/135/223 116/144/239 122/151/224
f 116/144/210 115/143/209 123/152/225
f 115/143/212 117/145/211 125/154/227
f 117/145/214 118/146/213 126/155/229
f 118/146/216 119/147/215 127/156/231
f 120/148/233 128/157/244 127/156/234
f 121/150/235 129/159/245 128/157/236
f 122/158/237 130/161/246 129/159/238
f 116/144/239 124/153/265 130/160/240
f 124/153/226 123/152/225 52/72/73
f 123/152/228 125/154/227 53/74/241
f 125/154/230 126/155/229 54/75/242
f 126/155/232 127/156/231 55/76/243
f 128/157/244 56/78/250 55/76/84
f 129/159/245 57/77/87 56/78/89
f 130/161/246 58/79/90 57/77/92
f 130/160/240 124/153/265 51/73/93
